<svg xmlns="http://www.w3.org/2000/svg" viewBox="0 0 100 100" width="32" height="32">
    <g>
        <path fill-rule="evenodd" clip-rule="evenodd" d="M43.754,711.312l0.14,0.409l0.233,0.349l0.292,0.339l0.338,0.291l0.361,0.292 l0.409,0.232l0.454,0.234l0.922,0.303l0.909,0.21l0.897,0.059l0.198-0.035l0.175-0.023l0.338-0.058v-6.601h1.819h2.473h9.119 H63.1h9.178h2.624h1.399v6.658l0.338,0.082l0.374,0.034h0.104h0.315l0.467-0.058l0.908-0.175l0.922-0.351l0.466-0.198 l0.396-0.269l0.373-0.279l0.339-0.292l0.292-0.339l0.231-0.349l0.141-0.408l0.081-0.396l2.007-18.716l-1.772-16.49l-0.151-0.757 l-0.198-0.688l-0.257-0.642l-0.339-0.596l-0.431-0.559l-0.548-0.491l-0.63-0.432l-0.746-0.372l-0.969-0.433l-0.897-0.314 l-0.104-0.035l-1.004-0.303l-1.003-0.292l-0.104-0.023l-1.936-0.384l-0.688-0.094l-1.341-0.198l-2.029-0.198l-2.041-0.116 l-3.767-0.141l-0.268-0.011l-4.069,0.151l-2.041,0.116l-2.007,0.198l-1.002,0.152l-1.026,0.14l-1.003,0.175l-0.443,0.093 l-0.56,0.14l-0.967,0.292l-0.806,0.245l-0.198,0.058l-1.004,0.35l-0.979,0.433l-0.746,0.372l-0.629,0.432l-0.537,0.491 l-0.432,0.559l-0.35,0.596l-0.28,0.642l-0.176,0.688l-0.139,0.757l-1.772,16.454l1.994,18.693L43.754,711.312z M74.282,700.549 l-0.126,0.373l-0.188,0.326l-0.245,0.291l-0.292,0.245l-0.349,0.187l-0.374,0.117l-0.432,0.046l-0.396-0.046l-0.386-0.117 l-0.337-0.187l-0.327-0.245l-0.245-0.291l-0.186-0.326l-0.094-0.373l-0.058-0.408l0.058-0.408l0.094-0.362l0.186-0.361 l0.245-0.292l0.327-0.245l0.337-0.185l0.386-0.105l0.396-0.059l0.432,0.059l0.374,0.105l0.349,0.185l0.292,0.245l0.245,0.292 l0.188,0.361l0.126,0.362l0.035,0.408L74.282,700.549z M79.088,700.549l-0.116,0.373l-0.187,0.326l-0.245,0.291l-0.315,0.245 l-0.314,0.187l-0.407,0.117l-0.386,0.046h-0.023l-0.396-0.046l-0.372-0.117l-0.352-0.187l-0.29-0.245l-0.27-0.291l-0.197-0.326 l-0.094-0.373l-0.035-0.408l0.035-0.408l0.094-0.362l0.197-0.361l0.27-0.292l0.29-0.245l0.352-0.185l0.372-0.105l0.396-0.059 h0.023l0.386,0.059l0.407,0.105l0.314,0.185l0.315,0.245l0.245,0.292l0.187,0.361l0.116,0.362l0.046,0.408L79.088,700.549z M69.012,676.363l0.035-0.245l0.095-0.268l0.139-0.246l0.198-0.245l0.175-0.187l0.223-0.162l0.232-0.106l0.21-0.034h1.959h2.624 h2.216h0.537l0.384,0.058l0.233,0.083l0.245,0.128l0.269,0.221l0.21,0.279l0.162,0.339l0.082,0.433l1.505,15.159l0.046,0.513 l-0.081,0.385l-0.163,0.269l-0.21,0.187l-0.245,0.105l-0.258,0.058l-0.43,0.023h-2.286h-2.216h-2.624H70.4l-0.315-0.105 l-0.291-0.186l-0.222-0.187l-0.175-0.211l-0.256-0.466l-0.13-0.385V676.363z M58.797,673.437H63.1h4.315v29.351H63.1h-4.303 V673.437z M50.868,700.525l-0.095,0.373l-0.197,0.35l-0.232,0.291l-0.305,0.245l-0.349,0.187l-0.362,0.117l-0.407,0.046h-0.013 l-0.407-0.046l-0.386-0.117l-0.35-0.187l-0.292-0.245l-0.231-0.291l-0.188-0.35l-0.116-0.373l-0.047-0.408l0.047-0.396 l0.116-0.386l0.188-0.349l0.231-0.293l0.292-0.256l0.35-0.175l0.386-0.14l0.407-0.023h0.013l0.407,0.023l0.362,0.14l0.349,0.175 l0.305,0.256l0.232,0.293l0.197,0.349l0.095,0.386l0.058,0.396L50.868,700.525z M55.637,700.525l-0.105,0.373l-0.198,0.35 l-0.232,0.291l-0.291,0.245l-0.327,0.187l-0.374,0.117l-0.396,0.046l-0.408-0.046l-0.373-0.117l-0.351-0.187l-0.291-0.245 l-0.244-0.291l-0.175-0.35l-0.117-0.373l-0.023-0.408l0.023-0.396l0.117-0.386l0.175-0.349l0.244-0.293l0.291-0.256l0.351-0.175 l0.373-0.14l0.408-0.023l0.396,0.023l0.374,0.14l0.327,0.175l0.291,0.256l0.232,0.293l0.198,0.349l0.105,0.386l0.047,0.396 L55.637,700.525z M45.41,691.173l1.644-14.705l0.105-0.536l0.175-0.409l0.222-0.302l0.245-0.176l0.21-0.141l0.152-0.058 l0.139-0.023h0.606h2.332h2.473h1.901l0.232,0.023l0.245,0.081l0.245,0.13l0.245,0.163l0.198,0.197l0.163,0.234l0.116,0.244 l0.046,0.303v15.568l-0.104,0.291l-0.104,0.245l-0.164,0.187l-0.15,0.187l-0.222,0.141l-0.245,0.104l-0.561,0.187h-1.842H51.24 h-2.332h-1.666l-0.352-0.023l-0.35-0.082l-0.349-0.15l-0.305-0.198l-0.232-0.269l-0.164-0.35l-0.104-0.409L45.41,691.173z"/>
        <rect x="54.669" y="712.268" fill-rule="evenodd" clip-rule="evenodd" width="16.734" height="2.449"/>
        <path fill-rule="evenodd" clip-rule="evenodd" d="M81.269,726.623l-2.368-2.694h5.038l-2.565-2.787h-4.921l-1.364-1.632h-2.577 l0.979,1.632H62.983H52.512l0.991-1.644l-2.508,0.012l-1.41,1.632h-5.41l-2.637,2.834h5.587l-2.31,2.647h-5.458l-3.626,3.999 l5.621-0.01l-1.471,1.69h5.854l1.027-1.69l16.221-0.024l16.198-0.023l1.119,1.866h6.063l-1.644-1.878h5.177l-3.731-3.93H81.269z M62.983,726.623H49.177l1.61-2.658l12.196-0.013l12.197-0.011l1.622,2.682H62.983z"/>
        <rect x="51.124" y="708.104" fill-rule="evenodd" clip-rule="evenodd" width="2.297" height="10.764"/>
        <rect x="72.465" y="708.104" fill-rule="evenodd" clip-rule="evenodd" width="2.296" height="10.764"/>
    </g>
</svg>